<svg xmlns="http://www.w3.org/2000/svg" viewBox="0 0 1200 900" role="img" aria-labelledby="title desc">
  <title id="title">ïŋ―<;ïŋ―ïŋ―`Mïŋ―</title>
  <desc id="desc">avrïŋ―oïŋ―ÏđqSïŋ―ïŋ―rjq(ïŋ―ïŋ―b:*ïŋ―\ïŋ―;ïŋ―</desc>
  <rect width="1200" height="900" fill="#d8c48b" />
  <path d="M0 690 180 495l130 115 160-230 210 255 150-170 370 260v175H0Z" fill="#8d8d5d" stroke="#252016" stroke-width="18" />
  <circle cx="930" cy="190" r="96" fill="#b56d46" stroke="#252016" stroke-width="16" />
  <path d="M455 585c14-108 82-166 160-166s146 58 160 166l23 177H432Z" fill="#fff6dd" stroke="#252016" stroke-width="18" />
  <path d="M528 398c18-62 58-92 104-92s86 30 104 92c-35 34-66 50-104 50s-69-16-104-50Z" fill="#5d6642" stroke="#252016" stroke-width="16" />
  <path d="M505 610h250M480 690h300" stroke="#252016" stroke-width="16" stroke-linecap="round" />
  <text x="78" y="122" fill="#252016" font-family="Arial, sans-serif" font-size="58" font-weight="900">YOUR HERO ART</text>
</svg>
